# xmcd
#
# Track frame offsets:
#	150
#	26711
#	46026
#	74071
#	95563
#	117211
#	137720
#	159502
#	188729
#	211782
#
# Disc length: 3087 seconds
#
# Revision: 1
# Processed by: cddbd v1.5.2PL0 Copyright (c) Steve Scherf et al.
# Submitted via: audiograbber 1.83.01
#
DISCID=880c0d0a
DTITLE=Leon Ware - Deeper
DYEAR=2004
DGENRE=R&B
TTITLE0=Love Sighns
TTITLE1=Stop Talkin' and Fall in Love
TTITLE2=Live in Your Love Forever
TTITLE3=How Deep Does It Go
TTITLE4=I've Never Loved So Much
TTITLE5=Givin' It Up
TTITLE6=Heartbeat
TTITLE7=I Wish You Knew
TTITLE8=Shoulda Been You
TTITLE9=To Serve You (All My Love)
EXTD=
EXTT0=
EXTT1=
EXTT2=
EXTT3=
EXTT4=
EXTT5=
EXTT6=
EXTT7=
EXTT8=
EXTT9=
PLAYORDER=
